<svg width="16" height="16" viewBox="0 0 16 16" fill="none" xmlns="http://www.w3.org/2000/svg">
<path fill-rule="evenodd" clip-rule="evenodd" d="M3.1 7.99999C2.7134 7.99999 2.4 8.3256 2.4 8.72726V13.8182C2.4 14.2198 2.7134 14.5454 3.1 14.5454H12.9C13.2866 14.5454 13.6 14.2198 13.6 13.8182V8.72726C13.6 8.3256 13.2866 7.99999 12.9 7.99999H3.1ZM1 8.72726C1 7.52227 1.9402 6.54544 3.1 6.54544H12.9C14.0598 6.54544 15 7.52227 15 8.72726V13.8182C15 15.0232 14.0598 16 12.9 16H3.1C1.9402 16 1 15.0232 1 13.8182V8.72726Z" fill="white"/>
<path fill-rule="evenodd" clip-rule="evenodd" d="M3.1 7.99999C2.7134 7.99999 2.4 8.3256 2.4 8.72726V13.8182C2.4 14.2198 2.7134 14.5454 3.1 14.5454H12.9C13.2866 14.5454 13.6 14.2198 13.6 13.8182V8.72726C13.6 8.3256 13.2866 7.99999 12.9 7.99999H3.1ZM1 8.72726C1 7.52227 1.9402 6.54544 3.1 6.54544H12.9C14.0598 6.54544 15 7.52227 15 8.72726V13.8182C15 15.0232 14.0598 16 12.9 16H3.1C1.9402 16 1 15.0232 1 13.8182V8.72726Z" fill="#4E5D78"/>
<path fill-rule="evenodd" clip-rule="evenodd" d="M8.00011 1.45455C7.2575 1.45455 6.54531 1.76104 6.02021 2.3066C5.49511 2.85216 5.20011 3.5921 5.20011 4.36364V7.27273C5.20011 7.67439 4.88671 8 4.50011 8C4.11351 8 3.80011 7.67439 3.80011 7.27273V4.36364C3.80011 3.20633 4.24261 2.09642 5.03026 1.27808C5.81791 0.459739 6.8862 0 8.00011 0C9.11402 0 10.1823 0.459739 10.97 1.27808C11.7576 2.09642 12.2001 3.20633 12.2001 4.36364V7.27273C12.2001 7.67439 11.8867 8 11.5001 8C11.1135 8 10.8001 7.67439 10.8001 7.27273V4.36364C10.8001 3.5921 10.5051 2.85216 9.98001 2.3066C9.45491 1.76104 8.74272 1.45455 8.00011 1.45455Z" fill="white"/>
<path fill-rule="evenodd" clip-rule="evenodd" d="M8.00011 1.45455C7.2575 1.45455 6.54531 1.76104 6.02021 2.3066C5.49511 2.85216 5.20011 3.5921 5.20011 4.36364V7.27273C5.20011 7.67439 4.88671 8 4.50011 8C4.11351 8 3.80011 7.67439 3.80011 7.27273V4.36364C3.80011 3.20633 4.24261 2.09642 5.03026 1.27808C5.81791 0.459739 6.8862 0 8.00011 0C9.11402 0 10.1823 0.459739 10.97 1.27808C11.7576 2.09642 12.2001 3.20633 12.2001 4.36364V7.27273C12.2001 7.67439 11.8867 8 11.5001 8C11.1135 8 10.8001 7.67439 10.8001 7.27273V4.36364C10.8001 3.5921 10.5051 2.85216 9.98001 2.3066C9.45491 1.76104 8.74272 1.45455 8.00011 1.45455Z" fill="#4E5D78"/>
</svg>
